<mxfile host="app.diagrams.net" agent="Mozilla/5.0 (Macintosh; Intel Mac OS X 10_15_7) AppleWebKit/605.1.15 (KHTML, like Gecko) Version/18.5 Safari/605.1.15" version="27.2.0">
  <diagram name="Page-1" id="3xb1P_dqeZJ_CLRqn7Ao">
    <mxGraphModel dx="9054" dy="6716" grid="0" gridSize="10" guides="1" tooltips="1" connect="1" arrows="1" fold="1" page="1" pageScale="1" pageWidth="827" pageHeight="1169" math="0" shadow="0">
      <root>
        <mxCell id="0" />
        <mxCell id="1" parent="0" />
        <mxCell id="fSKvicO9LgRBby99L307-4" value="" style="ellipse;whiteSpace=wrap;html=1;" parent="1" vertex="1">
          <mxGeometry x="3313" y="3244" width="3313" height="1840" as="geometry" />
        </mxCell>
        <mxCell id="fSKvicO9LgRBby99L307-6" value="" style="ellipse;whiteSpace=wrap;html=1;" parent="1" vertex="1">
          <mxGeometry x="3659.5" y="3460" width="2620" height="1400" as="geometry" />
        </mxCell>
        <mxCell id="fSKvicO9LgRBby99L307-14" value="" style="rounded=0;whiteSpace=wrap;html=1;" parent="1" vertex="1">
          <mxGeometry x="6026" y="3493" width="553" height="1367" as="geometry" />
        </mxCell>
        <mxCell id="YCooTLnTcFVxzHh2-yJh-12" value="" style="rounded=0;whiteSpace=wrap;html=1;" parent="1" vertex="1">
          <mxGeometry x="4952" y="-14" width="1467" height="1644" as="geometry" />
        </mxCell>
        <mxCell id="qoZMRPbnDqeFdRc159tS-201" value="" style="rounded=0;whiteSpace=wrap;html=1;fillColor=none;" parent="1" vertex="1">
          <mxGeometry y="-34" width="830" height="1600" as="geometry" />
        </mxCell>
        <mxCell id="qoZMRPbnDqeFdRc159tS-230" value="" style="rounded=0;whiteSpace=wrap;html=1;fillColor=none;" parent="1" vertex="1">
          <mxGeometry x="-377" y="3860" width="720" height="770" as="geometry" />
        </mxCell>
        <mxCell id="qoZMRPbnDqeFdRc159tS-1" value="" style="whiteSpace=wrap;html=1;aspect=fixed;" parent="1" vertex="1">
          <mxGeometry x="120" y="110" width="80" height="80" as="geometry" />
        </mxCell>
        <mxCell id="qoZMRPbnDqeFdRc159tS-2" value="" style="whiteSpace=wrap;html=1;aspect=fixed;" parent="1" vertex="1">
          <mxGeometry x="120" y="1310" width="80" height="80" as="geometry" />
        </mxCell>
        <mxCell id="qoZMRPbnDqeFdRc159tS-3" value="" style="whiteSpace=wrap;html=1;aspect=fixed;" parent="1" vertex="1">
          <mxGeometry x="120" y="1210" width="80" height="80" as="geometry" />
        </mxCell>
        <mxCell id="qoZMRPbnDqeFdRc159tS-4" value="" style="whiteSpace=wrap;html=1;aspect=fixed;" parent="1" vertex="1">
          <mxGeometry x="120" y="1110" width="80" height="80" as="geometry" />
        </mxCell>
        <mxCell id="qoZMRPbnDqeFdRc159tS-5" value="" style="whiteSpace=wrap;html=1;aspect=fixed;" parent="1" vertex="1">
          <mxGeometry x="120" y="1010" width="80" height="80" as="geometry" />
        </mxCell>
        <mxCell id="qoZMRPbnDqeFdRc159tS-6" value="" style="whiteSpace=wrap;html=1;aspect=fixed;" parent="1" vertex="1">
          <mxGeometry x="120" y="910" width="80" height="80" as="geometry" />
        </mxCell>
        <mxCell id="qoZMRPbnDqeFdRc159tS-7" value="" style="whiteSpace=wrap;html=1;aspect=fixed;" parent="1" vertex="1">
          <mxGeometry x="120" y="810" width="80" height="80" as="geometry" />
        </mxCell>
        <mxCell id="qoZMRPbnDqeFdRc159tS-8" value="" style="whiteSpace=wrap;html=1;aspect=fixed;" parent="1" vertex="1">
          <mxGeometry x="120" y="710" width="80" height="80" as="geometry" />
        </mxCell>
        <mxCell id="qoZMRPbnDqeFdRc159tS-9" value="" style="whiteSpace=wrap;html=1;aspect=fixed;" parent="1" vertex="1">
          <mxGeometry x="120" y="610" width="80" height="80" as="geometry" />
        </mxCell>
        <mxCell id="qoZMRPbnDqeFdRc159tS-10" value="" style="whiteSpace=wrap;html=1;aspect=fixed;" parent="1" vertex="1">
          <mxGeometry x="120" y="510" width="80" height="80" as="geometry" />
        </mxCell>
        <mxCell id="qoZMRPbnDqeFdRc159tS-11" value="" style="whiteSpace=wrap;html=1;aspect=fixed;" parent="1" vertex="1">
          <mxGeometry x="120" y="410" width="80" height="80" as="geometry" />
        </mxCell>
        <mxCell id="qoZMRPbnDqeFdRc159tS-12" value="" style="whiteSpace=wrap;html=1;aspect=fixed;" parent="1" vertex="1">
          <mxGeometry x="120" y="310" width="80" height="80" as="geometry" />
        </mxCell>
        <mxCell id="qoZMRPbnDqeFdRc159tS-13" value="" style="whiteSpace=wrap;html=1;aspect=fixed;" parent="1" vertex="1">
          <mxGeometry x="120" y="210" width="80" height="80" as="geometry" />
        </mxCell>
        <mxCell id="qoZMRPbnDqeFdRc159tS-15" value="" style="rounded=0;whiteSpace=wrap;html=1;fillColor=none;" parent="1" vertex="1">
          <mxGeometry x="100" y="90" width="120" height="1210" as="geometry" />
        </mxCell>
        <mxCell id="qoZMRPbnDqeFdRc159tS-17" value="" style="shape=flexArrow;endArrow=classic;html=1;rounded=0;" parent="1" edge="1">
          <mxGeometry width="50" height="50" relative="1" as="geometry">
            <mxPoint x="280" y="830" as="sourcePoint" />
            <mxPoint x="350" y="830" as="targetPoint" />
          </mxGeometry>
        </mxCell>
        <mxCell id="qoZMRPbnDqeFdRc159tS-32" value="" style="shape=flexArrow;endArrow=classic;html=1;rounded=0;" parent="1" edge="1">
          <mxGeometry width="50" height="50" relative="1" as="geometry">
            <mxPoint x="560" y="830" as="sourcePoint" />
            <mxPoint x="640" y="830" as="targetPoint" />
          </mxGeometry>
        </mxCell>
        <mxCell id="qoZMRPbnDqeFdRc159tS-53" value="" style="whiteSpace=wrap;html=1;aspect=fixed;" parent="1" vertex="1">
          <mxGeometry x="1654" width="850" height="850" as="geometry" />
        </mxCell>
        <mxCell id="qoZMRPbnDqeFdRc159tS-54" value="" style="endArrow=none;html=1;rounded=0;" parent="1" edge="1">
          <mxGeometry width="50" height="50" relative="1" as="geometry">
            <mxPoint x="2068" y="850" as="sourcePoint" />
            <mxPoint x="2068" as="targetPoint" />
          </mxGeometry>
        </mxCell>
        <mxCell id="qoZMRPbnDqeFdRc159tS-55" value="" style="endArrow=none;html=1;rounded=0;" parent="1" edge="1">
          <mxGeometry width="50" height="50" relative="1" as="geometry">
            <mxPoint x="2504" y="400" as="sourcePoint" />
            <mxPoint x="1654" y="400" as="targetPoint" />
          </mxGeometry>
        </mxCell>
        <mxCell id="qoZMRPbnDqeFdRc159tS-56" value="" style="whiteSpace=wrap;html=1;aspect=fixed;" parent="1" vertex="1">
          <mxGeometry x="1760" y="90" width="210" height="210" as="geometry" />
        </mxCell>
        <mxCell id="qoZMRPbnDqeFdRc159tS-57" value="" style="whiteSpace=wrap;html=1;aspect=fixed;" parent="1" vertex="1">
          <mxGeometry x="1760" y="530" width="210" height="210" as="geometry" />
        </mxCell>
        <mxCell id="qoZMRPbnDqeFdRc159tS-58" value="" style="whiteSpace=wrap;html=1;aspect=fixed;" parent="1" vertex="1">
          <mxGeometry x="2180" y="530" width="210" height="210" as="geometry" />
        </mxCell>
        <mxCell id="qoZMRPbnDqeFdRc159tS-59" value="" style="whiteSpace=wrap;html=1;aspect=fixed;" parent="1" vertex="1">
          <mxGeometry x="2180" y="90" width="210" height="210" as="geometry" />
        </mxCell>
        <mxCell id="qoZMRPbnDqeFdRc159tS-60" value="" style="rounded=0;whiteSpace=wrap;html=1;fillColor=none;" parent="1" vertex="1">
          <mxGeometry x="1720" y="50" width="290" height="740" as="geometry" />
        </mxCell>
        <mxCell id="qoZMRPbnDqeFdRc159tS-61" value="" style="whiteSpace=wrap;html=1;aspect=fixed;" parent="1" vertex="1">
          <mxGeometry x="1654" y="1180" width="850" height="850" as="geometry" />
        </mxCell>
        <mxCell id="qoZMRPbnDqeFdRc159tS-62" value="" style="endArrow=none;html=1;rounded=0;" parent="1" edge="1">
          <mxGeometry width="50" height="50" relative="1" as="geometry">
            <mxPoint x="2068" y="2030" as="sourcePoint" />
            <mxPoint x="2068" y="1180" as="targetPoint" />
          </mxGeometry>
        </mxCell>
        <mxCell id="qoZMRPbnDqeFdRc159tS-63" value="" style="endArrow=none;html=1;rounded=0;" parent="1" edge="1">
          <mxGeometry width="50" height="50" relative="1" as="geometry">
            <mxPoint x="2504" y="1580" as="sourcePoint" />
            <mxPoint x="1654" y="1580" as="targetPoint" />
          </mxGeometry>
        </mxCell>
        <mxCell id="qoZMRPbnDqeFdRc159tS-64" value="" style="whiteSpace=wrap;html=1;aspect=fixed;" parent="1" vertex="1">
          <mxGeometry x="1760" y="1270" width="210" height="210" as="geometry" />
        </mxCell>
        <mxCell id="qoZMRPbnDqeFdRc159tS-65" value="" style="whiteSpace=wrap;html=1;aspect=fixed;" parent="1" vertex="1">
          <mxGeometry x="1760" y="1710" width="210" height="210" as="geometry" />
        </mxCell>
        <mxCell id="qoZMRPbnDqeFdRc159tS-66" value="" style="whiteSpace=wrap;html=1;aspect=fixed;" parent="1" vertex="1">
          <mxGeometry x="2180" y="1710" width="210" height="210" as="geometry" />
        </mxCell>
        <mxCell id="qoZMRPbnDqeFdRc159tS-67" value="" style="whiteSpace=wrap;html=1;aspect=fixed;" parent="1" vertex="1">
          <mxGeometry x="2180" y="1270" width="210" height="210" as="geometry" />
        </mxCell>
        <mxCell id="qoZMRPbnDqeFdRc159tS-68" value="" style="rounded=0;whiteSpace=wrap;html=1;fillColor=none;" parent="1" vertex="1">
          <mxGeometry x="1720" y="1670" width="720" height="300" as="geometry" />
        </mxCell>
        <mxCell id="qoZMRPbnDqeFdRc159tS-69" value="" style="whiteSpace=wrap;html=1;aspect=fixed;" parent="1" vertex="1">
          <mxGeometry x="2895" y="1175" width="850" height="850" as="geometry" />
        </mxCell>
        <mxCell id="qoZMRPbnDqeFdRc159tS-70" value="" style="endArrow=none;html=1;rounded=0;" parent="1" edge="1">
          <mxGeometry width="50" height="50" relative="1" as="geometry">
            <mxPoint x="3309" y="2025" as="sourcePoint" />
            <mxPoint x="3309" y="1175" as="targetPoint" />
          </mxGeometry>
        </mxCell>
        <mxCell id="qoZMRPbnDqeFdRc159tS-71" value="" style="endArrow=none;html=1;rounded=0;" parent="1" edge="1">
          <mxGeometry width="50" height="50" relative="1" as="geometry">
            <mxPoint x="3745" y="1575" as="sourcePoint" />
            <mxPoint x="2895" y="1575" as="targetPoint" />
          </mxGeometry>
        </mxCell>
        <mxCell id="qoZMRPbnDqeFdRc159tS-72" value="" style="whiteSpace=wrap;html=1;aspect=fixed;" parent="1" vertex="1">
          <mxGeometry x="3001" y="1265" width="210" height="210" as="geometry" />
        </mxCell>
        <mxCell id="qoZMRPbnDqeFdRc159tS-73" value="" style="whiteSpace=wrap;html=1;aspect=fixed;" parent="1" vertex="1">
          <mxGeometry x="3001" y="1705" width="210" height="210" as="geometry" />
        </mxCell>
        <mxCell id="qoZMRPbnDqeFdRc159tS-74" value="" style="whiteSpace=wrap;html=1;aspect=fixed;" parent="1" vertex="1">
          <mxGeometry x="3421" y="1705" width="210" height="210" as="geometry" />
        </mxCell>
        <mxCell id="qoZMRPbnDqeFdRc159tS-75" value="" style="whiteSpace=wrap;html=1;aspect=fixed;" parent="1" vertex="1">
          <mxGeometry x="3421" y="1265" width="210" height="210" as="geometry" />
        </mxCell>
        <mxCell id="qoZMRPbnDqeFdRc159tS-76" value="" style="rounded=0;whiteSpace=wrap;html=1;fillColor=none;" parent="1" vertex="1">
          <mxGeometry x="3381" y="1225" width="290" height="740" as="geometry" />
        </mxCell>
        <mxCell id="qoZMRPbnDqeFdRc159tS-85" value="" style="whiteSpace=wrap;html=1;aspect=fixed;" parent="1" vertex="1">
          <mxGeometry x="2895" width="850" height="850" as="geometry" />
        </mxCell>
        <mxCell id="qoZMRPbnDqeFdRc159tS-86" value="" style="endArrow=none;html=1;rounded=0;" parent="1" edge="1">
          <mxGeometry width="50" height="50" relative="1" as="geometry">
            <mxPoint x="3309" y="850" as="sourcePoint" />
            <mxPoint x="3309" as="targetPoint" />
          </mxGeometry>
        </mxCell>
        <mxCell id="qoZMRPbnDqeFdRc159tS-87" value="" style="endArrow=none;html=1;rounded=0;" parent="1" edge="1">
          <mxGeometry width="50" height="50" relative="1" as="geometry">
            <mxPoint x="3745" y="400" as="sourcePoint" />
            <mxPoint x="2895" y="400" as="targetPoint" />
          </mxGeometry>
        </mxCell>
        <mxCell id="qoZMRPbnDqeFdRc159tS-88" value="" style="whiteSpace=wrap;html=1;aspect=fixed;" parent="1" vertex="1">
          <mxGeometry x="3001" y="90" width="210" height="210" as="geometry" />
        </mxCell>
        <mxCell id="qoZMRPbnDqeFdRc159tS-89" value="" style="whiteSpace=wrap;html=1;aspect=fixed;" parent="1" vertex="1">
          <mxGeometry x="3001" y="530" width="210" height="210" as="geometry" />
        </mxCell>
        <mxCell id="qoZMRPbnDqeFdRc159tS-90" value="" style="whiteSpace=wrap;html=1;aspect=fixed;" parent="1" vertex="1">
          <mxGeometry x="3421" y="530" width="210" height="210" as="geometry" />
        </mxCell>
        <mxCell id="qoZMRPbnDqeFdRc159tS-91" value="" style="whiteSpace=wrap;html=1;aspect=fixed;" parent="1" vertex="1">
          <mxGeometry x="3421" y="90" width="210" height="210" as="geometry" />
        </mxCell>
        <mxCell id="qoZMRPbnDqeFdRc159tS-92" value="" style="rounded=0;whiteSpace=wrap;html=1;fillColor=none;" parent="1" vertex="1">
          <mxGeometry x="2961" y="50" width="719" height="290" as="geometry" />
        </mxCell>
        <mxCell id="qoZMRPbnDqeFdRc159tS-93" value="" style="shape=flexArrow;endArrow=classic;html=1;rounded=0;" parent="1" edge="1">
          <mxGeometry width="50" height="50" relative="1" as="geometry">
            <mxPoint x="2068" y="920" as="sourcePoint" />
            <mxPoint x="2068" y="1090" as="targetPoint" />
          </mxGeometry>
        </mxCell>
        <mxCell id="qoZMRPbnDqeFdRc159tS-94" value="" style="shape=flexArrow;endArrow=classic;html=1;rounded=0;" parent="1" edge="1">
          <mxGeometry width="50" height="50" relative="1" as="geometry">
            <mxPoint x="2600" y="1560" as="sourcePoint" />
            <mxPoint x="2800" y="1560" as="targetPoint" />
          </mxGeometry>
        </mxCell>
        <mxCell id="qoZMRPbnDqeFdRc159tS-96" value="" style="shape=flexArrow;endArrow=classic;html=1;rounded=0;" parent="1" edge="1">
          <mxGeometry width="50" height="50" relative="1" as="geometry">
            <mxPoint x="2790" y="408" as="sourcePoint" />
            <mxPoint x="2590" y="408" as="targetPoint" />
          </mxGeometry>
        </mxCell>
        <mxCell id="qoZMRPbnDqeFdRc159tS-97" value="" style="shape=flexArrow;endArrow=classic;html=1;rounded=0;" parent="1" edge="1">
          <mxGeometry width="50" height="50" relative="1" as="geometry">
            <mxPoint x="3319" y="1080" as="sourcePoint" />
            <mxPoint x="3319" y="910" as="targetPoint" />
          </mxGeometry>
        </mxCell>
        <mxCell id="qoZMRPbnDqeFdRc159tS-104" value="&lt;font style=&quot;font-size: 25px;&quot;&gt;1M&lt;/font&gt;" style="text;strokeColor=none;align=center;fillColor=none;html=1;verticalAlign=middle;whiteSpace=wrap;rounded=0;" parent="1" vertex="1">
          <mxGeometry x="130" y="135" width="60" height="30" as="geometry" />
        </mxCell>
        <mxCell id="qoZMRPbnDqeFdRc159tS-105" value="&lt;font style=&quot;font-size: 25px;&quot;&gt;1M&lt;/font&gt;" style="text;strokeColor=none;align=center;fillColor=none;html=1;verticalAlign=middle;whiteSpace=wrap;rounded=0;" parent="1" vertex="1">
          <mxGeometry x="130" y="235" width="60" height="30" as="geometry" />
        </mxCell>
        <mxCell id="qoZMRPbnDqeFdRc159tS-106" value="&lt;font style=&quot;font-size: 25px;&quot;&gt;1M&lt;/font&gt;" style="text;strokeColor=none;align=center;fillColor=none;html=1;verticalAlign=middle;whiteSpace=wrap;rounded=0;" parent="1" vertex="1">
          <mxGeometry x="130" y="340" width="60" height="30" as="geometry" />
        </mxCell>
        <mxCell id="qoZMRPbnDqeFdRc159tS-107" value="&lt;font style=&quot;font-size: 25px;&quot;&gt;1M&lt;/font&gt;" style="text;strokeColor=none;align=center;fillColor=none;html=1;verticalAlign=middle;whiteSpace=wrap;rounded=0;" parent="1" vertex="1">
          <mxGeometry x="130" y="435" width="60" height="30" as="geometry" />
        </mxCell>
        <mxCell id="qoZMRPbnDqeFdRc159tS-108" value="&lt;font style=&quot;font-size: 25px;&quot;&gt;1M&lt;/font&gt;" style="text;strokeColor=none;align=center;fillColor=none;html=1;verticalAlign=middle;whiteSpace=wrap;rounded=0;" parent="1" vertex="1">
          <mxGeometry x="130" y="535" width="60" height="30" as="geometry" />
        </mxCell>
        <mxCell id="qoZMRPbnDqeFdRc159tS-109" value="&lt;font style=&quot;font-size: 25px;&quot;&gt;1M&lt;/font&gt;" style="text;strokeColor=none;align=center;fillColor=none;html=1;verticalAlign=middle;whiteSpace=wrap;rounded=0;" parent="1" vertex="1">
          <mxGeometry x="130" y="635" width="60" height="30" as="geometry" />
        </mxCell>
        <mxCell id="qoZMRPbnDqeFdRc159tS-110" value="&lt;font style=&quot;font-size: 25px;&quot;&gt;1M&lt;/font&gt;" style="text;strokeColor=none;align=center;fillColor=none;html=1;verticalAlign=middle;whiteSpace=wrap;rounded=0;" parent="1" vertex="1">
          <mxGeometry x="130" y="735" width="60" height="30" as="geometry" />
        </mxCell>
        <mxCell id="qoZMRPbnDqeFdRc159tS-111" value="&lt;font style=&quot;font-size: 25px;&quot;&gt;1M&lt;/font&gt;" style="text;strokeColor=none;align=center;fillColor=none;html=1;verticalAlign=middle;whiteSpace=wrap;rounded=0;" parent="1" vertex="1">
          <mxGeometry x="130" y="835" width="60" height="30" as="geometry" />
        </mxCell>
        <mxCell id="qoZMRPbnDqeFdRc159tS-112" value="&lt;font style=&quot;font-size: 25px;&quot;&gt;1M&lt;/font&gt;" style="text;strokeColor=none;align=center;fillColor=none;html=1;verticalAlign=middle;whiteSpace=wrap;rounded=0;" parent="1" vertex="1">
          <mxGeometry x="130" y="935" width="60" height="30" as="geometry" />
        </mxCell>
        <mxCell id="qoZMRPbnDqeFdRc159tS-113" value="&lt;font style=&quot;font-size: 25px;&quot;&gt;1M&lt;/font&gt;" style="text;strokeColor=none;align=center;fillColor=none;html=1;verticalAlign=middle;whiteSpace=wrap;rounded=0;" parent="1" vertex="1">
          <mxGeometry x="130" y="1035" width="60" height="30" as="geometry" />
        </mxCell>
        <mxCell id="qoZMRPbnDqeFdRc159tS-114" value="&lt;font style=&quot;font-size: 25px;&quot;&gt;1M&lt;/font&gt;" style="text;strokeColor=none;align=center;fillColor=none;html=1;verticalAlign=middle;whiteSpace=wrap;rounded=0;" parent="1" vertex="1">
          <mxGeometry x="130" y="1135" width="60" height="30" as="geometry" />
        </mxCell>
        <mxCell id="qoZMRPbnDqeFdRc159tS-115" value="&lt;font style=&quot;font-size: 25px;&quot;&gt;1M&lt;/font&gt;" style="text;strokeColor=none;align=center;fillColor=none;html=1;verticalAlign=middle;whiteSpace=wrap;rounded=0;" parent="1" vertex="1">
          <mxGeometry x="130" y="1235" width="60" height="30" as="geometry" />
        </mxCell>
        <mxCell id="qoZMRPbnDqeFdRc159tS-116" value="&lt;font style=&quot;font-size: 25px;&quot;&gt;1M&lt;/font&gt;" style="text;strokeColor=none;align=center;fillColor=none;html=1;verticalAlign=middle;whiteSpace=wrap;rounded=0;" parent="1" vertex="1">
          <mxGeometry x="130" y="1335" width="60" height="30" as="geometry" />
        </mxCell>
        <mxCell id="qoZMRPbnDqeFdRc159tS-117" value="&lt;font style=&quot;font-size: 75px;&quot;&gt;12 MONTHS&lt;/font&gt;" style="text;strokeColor=none;align=center;fillColor=none;html=1;verticalAlign=middle;whiteSpace=wrap;rounded=0;" parent="1" vertex="1">
          <mxGeometry x="-31" y="-111" width="890" height="30" as="geometry" />
        </mxCell>
        <mxCell id="qoZMRPbnDqeFdRc159tS-145" value="" style="whiteSpace=wrap;html=1;aspect=fixed;" parent="1" vertex="1">
          <mxGeometry x="410" y="110" width="80" height="80" as="geometry" />
        </mxCell>
        <mxCell id="qoZMRPbnDqeFdRc159tS-146" value="" style="whiteSpace=wrap;html=1;aspect=fixed;" parent="1" vertex="1">
          <mxGeometry x="410" y="1310" width="80" height="80" as="geometry" />
        </mxCell>
        <mxCell id="qoZMRPbnDqeFdRc159tS-147" value="" style="whiteSpace=wrap;html=1;aspect=fixed;" parent="1" vertex="1">
          <mxGeometry x="410" y="1210" width="80" height="80" as="geometry" />
        </mxCell>
        <mxCell id="qoZMRPbnDqeFdRc159tS-148" value="" style="whiteSpace=wrap;html=1;aspect=fixed;" parent="1" vertex="1">
          <mxGeometry x="410" y="1110" width="80" height="80" as="geometry" />
        </mxCell>
        <mxCell id="qoZMRPbnDqeFdRc159tS-149" value="" style="whiteSpace=wrap;html=1;aspect=fixed;" parent="1" vertex="1">
          <mxGeometry x="410" y="1010" width="80" height="80" as="geometry" />
        </mxCell>
        <mxCell id="qoZMRPbnDqeFdRc159tS-150" value="" style="whiteSpace=wrap;html=1;aspect=fixed;" parent="1" vertex="1">
          <mxGeometry x="410" y="910" width="80" height="80" as="geometry" />
        </mxCell>
        <mxCell id="qoZMRPbnDqeFdRc159tS-151" value="" style="whiteSpace=wrap;html=1;aspect=fixed;" parent="1" vertex="1">
          <mxGeometry x="410" y="810" width="80" height="80" as="geometry" />
        </mxCell>
        <mxCell id="qoZMRPbnDqeFdRc159tS-152" value="" style="whiteSpace=wrap;html=1;aspect=fixed;" parent="1" vertex="1">
          <mxGeometry x="410" y="710" width="80" height="80" as="geometry" />
        </mxCell>
        <mxCell id="qoZMRPbnDqeFdRc159tS-153" value="" style="whiteSpace=wrap;html=1;aspect=fixed;" parent="1" vertex="1">
          <mxGeometry x="410" y="610" width="80" height="80" as="geometry" />
        </mxCell>
        <mxCell id="qoZMRPbnDqeFdRc159tS-154" value="" style="whiteSpace=wrap;html=1;aspect=fixed;" parent="1" vertex="1">
          <mxGeometry x="410" y="510" width="80" height="80" as="geometry" />
        </mxCell>
        <mxCell id="qoZMRPbnDqeFdRc159tS-155" value="" style="whiteSpace=wrap;html=1;aspect=fixed;" parent="1" vertex="1">
          <mxGeometry x="410" y="410" width="80" height="80" as="geometry" />
        </mxCell>
        <mxCell id="qoZMRPbnDqeFdRc159tS-156" value="" style="whiteSpace=wrap;html=1;aspect=fixed;" parent="1" vertex="1">
          <mxGeometry x="410" y="310" width="80" height="80" as="geometry" />
        </mxCell>
        <mxCell id="qoZMRPbnDqeFdRc159tS-157" value="" style="whiteSpace=wrap;html=1;aspect=fixed;" parent="1" vertex="1">
          <mxGeometry x="410" y="210" width="80" height="80" as="geometry" />
        </mxCell>
        <mxCell id="qoZMRPbnDqeFdRc159tS-158" value="" style="rounded=0;whiteSpace=wrap;html=1;fillColor=none;" parent="1" vertex="1">
          <mxGeometry x="390" y="200" width="120" height="1210" as="geometry" />
        </mxCell>
        <mxCell id="qoZMRPbnDqeFdRc159tS-159" value="&lt;font style=&quot;font-size: 25px;&quot;&gt;1M&lt;/font&gt;" style="text;strokeColor=none;align=center;fillColor=none;html=1;verticalAlign=middle;whiteSpace=wrap;rounded=0;" parent="1" vertex="1">
          <mxGeometry x="420" y="135" width="60" height="30" as="geometry" />
        </mxCell>
        <mxCell id="qoZMRPbnDqeFdRc159tS-160" value="&lt;font style=&quot;font-size: 25px;&quot;&gt;1M&lt;/font&gt;" style="text;strokeColor=none;align=center;fillColor=none;html=1;verticalAlign=middle;whiteSpace=wrap;rounded=0;" parent="1" vertex="1">
          <mxGeometry x="420" y="235" width="60" height="30" as="geometry" />
        </mxCell>
        <mxCell id="qoZMRPbnDqeFdRc159tS-161" value="&lt;font style=&quot;font-size: 25px;&quot;&gt;1M&lt;/font&gt;" style="text;strokeColor=none;align=center;fillColor=none;html=1;verticalAlign=middle;whiteSpace=wrap;rounded=0;" parent="1" vertex="1">
          <mxGeometry x="420" y="340" width="60" height="30" as="geometry" />
        </mxCell>
        <mxCell id="qoZMRPbnDqeFdRc159tS-162" value="&lt;font style=&quot;font-size: 25px;&quot;&gt;1M&lt;/font&gt;" style="text;strokeColor=none;align=center;fillColor=none;html=1;verticalAlign=middle;whiteSpace=wrap;rounded=0;" parent="1" vertex="1">
          <mxGeometry x="420" y="435" width="60" height="30" as="geometry" />
        </mxCell>
        <mxCell id="qoZMRPbnDqeFdRc159tS-163" value="&lt;font style=&quot;font-size: 25px;&quot;&gt;1M&lt;/font&gt;" style="text;strokeColor=none;align=center;fillColor=none;html=1;verticalAlign=middle;whiteSpace=wrap;rounded=0;" parent="1" vertex="1">
          <mxGeometry x="420" y="535" width="60" height="30" as="geometry" />
        </mxCell>
        <mxCell id="qoZMRPbnDqeFdRc159tS-164" value="&lt;font style=&quot;font-size: 25px;&quot;&gt;1M&lt;/font&gt;" style="text;strokeColor=none;align=center;fillColor=none;html=1;verticalAlign=middle;whiteSpace=wrap;rounded=0;" parent="1" vertex="1">
          <mxGeometry x="420" y="635" width="60" height="30" as="geometry" />
        </mxCell>
        <mxCell id="qoZMRPbnDqeFdRc159tS-165" value="&lt;font style=&quot;font-size: 25px;&quot;&gt;1M&lt;/font&gt;" style="text;strokeColor=none;align=center;fillColor=none;html=1;verticalAlign=middle;whiteSpace=wrap;rounded=0;" parent="1" vertex="1">
          <mxGeometry x="420" y="735" width="60" height="30" as="geometry" />
        </mxCell>
        <mxCell id="qoZMRPbnDqeFdRc159tS-166" value="&lt;font style=&quot;font-size: 25px;&quot;&gt;1M&lt;/font&gt;" style="text;strokeColor=none;align=center;fillColor=none;html=1;verticalAlign=middle;whiteSpace=wrap;rounded=0;" parent="1" vertex="1">
          <mxGeometry x="420" y="835" width="60" height="30" as="geometry" />
        </mxCell>
        <mxCell id="qoZMRPbnDqeFdRc159tS-167" value="&lt;font style=&quot;font-size: 25px;&quot;&gt;1M&lt;/font&gt;" style="text;strokeColor=none;align=center;fillColor=none;html=1;verticalAlign=middle;whiteSpace=wrap;rounded=0;" parent="1" vertex="1">
          <mxGeometry x="420" y="935" width="60" height="30" as="geometry" />
        </mxCell>
        <mxCell id="qoZMRPbnDqeFdRc159tS-168" value="&lt;font style=&quot;font-size: 25px;&quot;&gt;1M&lt;/font&gt;" style="text;strokeColor=none;align=center;fillColor=none;html=1;verticalAlign=middle;whiteSpace=wrap;rounded=0;" parent="1" vertex="1">
          <mxGeometry x="420" y="1035" width="60" height="30" as="geometry" />
        </mxCell>
        <mxCell id="qoZMRPbnDqeFdRc159tS-169" value="&lt;font style=&quot;font-size: 25px;&quot;&gt;1M&lt;/font&gt;" style="text;strokeColor=none;align=center;fillColor=none;html=1;verticalAlign=middle;whiteSpace=wrap;rounded=0;" parent="1" vertex="1">
          <mxGeometry x="420" y="1135" width="60" height="30" as="geometry" />
        </mxCell>
        <mxCell id="qoZMRPbnDqeFdRc159tS-170" value="&lt;font style=&quot;font-size: 25px;&quot;&gt;1M&lt;/font&gt;" style="text;strokeColor=none;align=center;fillColor=none;html=1;verticalAlign=middle;whiteSpace=wrap;rounded=0;" parent="1" vertex="1">
          <mxGeometry x="420" y="1235" width="60" height="30" as="geometry" />
        </mxCell>
        <mxCell id="qoZMRPbnDqeFdRc159tS-171" value="&lt;font style=&quot;font-size: 25px;&quot;&gt;1M&lt;/font&gt;" style="text;strokeColor=none;align=center;fillColor=none;html=1;verticalAlign=middle;whiteSpace=wrap;rounded=0;" parent="1" vertex="1">
          <mxGeometry x="420" y="1335" width="60" height="30" as="geometry" />
        </mxCell>
        <mxCell id="qoZMRPbnDqeFdRc159tS-174" value="" style="whiteSpace=wrap;html=1;aspect=fixed;" parent="1" vertex="1">
          <mxGeometry x="690" y="1300" width="80" height="80" as="geometry" />
        </mxCell>
        <mxCell id="qoZMRPbnDqeFdRc159tS-175" value="" style="whiteSpace=wrap;html=1;aspect=fixed;" parent="1" vertex="1">
          <mxGeometry x="690" y="1200" width="80" height="80" as="geometry" />
        </mxCell>
        <mxCell id="qoZMRPbnDqeFdRc159tS-176" value="" style="whiteSpace=wrap;html=1;aspect=fixed;" parent="1" vertex="1">
          <mxGeometry x="690" y="1100" width="80" height="80" as="geometry" />
        </mxCell>
        <mxCell id="qoZMRPbnDqeFdRc159tS-177" value="" style="whiteSpace=wrap;html=1;aspect=fixed;" parent="1" vertex="1">
          <mxGeometry x="690" y="1000" width="80" height="80" as="geometry" />
        </mxCell>
        <mxCell id="qoZMRPbnDqeFdRc159tS-178" value="" style="whiteSpace=wrap;html=1;aspect=fixed;" parent="1" vertex="1">
          <mxGeometry x="690" y="900" width="80" height="80" as="geometry" />
        </mxCell>
        <mxCell id="qoZMRPbnDqeFdRc159tS-179" value="" style="whiteSpace=wrap;html=1;aspect=fixed;" parent="1" vertex="1">
          <mxGeometry x="690" y="800" width="80" height="80" as="geometry" />
        </mxCell>
        <mxCell id="qoZMRPbnDqeFdRc159tS-180" value="" style="whiteSpace=wrap;html=1;aspect=fixed;" parent="1" vertex="1">
          <mxGeometry x="690" y="700" width="80" height="80" as="geometry" />
        </mxCell>
        <mxCell id="qoZMRPbnDqeFdRc159tS-181" value="" style="whiteSpace=wrap;html=1;aspect=fixed;" parent="1" vertex="1">
          <mxGeometry x="690" y="600" width="80" height="80" as="geometry" />
        </mxCell>
        <mxCell id="qoZMRPbnDqeFdRc159tS-182" value="" style="whiteSpace=wrap;html=1;aspect=fixed;" parent="1" vertex="1">
          <mxGeometry x="690" y="500" width="80" height="80" as="geometry" />
        </mxCell>
        <mxCell id="qoZMRPbnDqeFdRc159tS-183" value="" style="whiteSpace=wrap;html=1;aspect=fixed;" parent="1" vertex="1">
          <mxGeometry x="690" y="400" width="80" height="80" as="geometry" />
        </mxCell>
        <mxCell id="qoZMRPbnDqeFdRc159tS-184" value="" style="whiteSpace=wrap;html=1;aspect=fixed;" parent="1" vertex="1">
          <mxGeometry x="690" y="300" width="80" height="80" as="geometry" />
        </mxCell>
        <mxCell id="qoZMRPbnDqeFdRc159tS-185" value="" style="whiteSpace=wrap;html=1;aspect=fixed;" parent="1" vertex="1">
          <mxGeometry x="690" y="200" width="80" height="80" as="geometry" />
        </mxCell>
        <mxCell id="qoZMRPbnDqeFdRc159tS-186" value="" style="rounded=0;whiteSpace=wrap;html=1;fillColor=none;" parent="1" vertex="1">
          <mxGeometry x="670" y="190" width="120" height="1210" as="geometry" />
        </mxCell>
        <mxCell id="qoZMRPbnDqeFdRc159tS-188" value="&lt;font style=&quot;font-size: 25px;&quot;&gt;1M&lt;/font&gt;" style="text;strokeColor=none;align=center;fillColor=none;html=1;verticalAlign=middle;whiteSpace=wrap;rounded=0;" parent="1" vertex="1">
          <mxGeometry x="700" y="225" width="60" height="30" as="geometry" />
        </mxCell>
        <mxCell id="qoZMRPbnDqeFdRc159tS-189" value="&lt;font style=&quot;font-size: 25px;&quot;&gt;1M&lt;/font&gt;" style="text;strokeColor=none;align=center;fillColor=none;html=1;verticalAlign=middle;whiteSpace=wrap;rounded=0;" parent="1" vertex="1">
          <mxGeometry x="700" y="330" width="60" height="30" as="geometry" />
        </mxCell>
        <mxCell id="qoZMRPbnDqeFdRc159tS-190" value="&lt;font style=&quot;font-size: 25px;&quot;&gt;1M&lt;/font&gt;" style="text;strokeColor=none;align=center;fillColor=none;html=1;verticalAlign=middle;whiteSpace=wrap;rounded=0;" parent="1" vertex="1">
          <mxGeometry x="700" y="425" width="60" height="30" as="geometry" />
        </mxCell>
        <mxCell id="qoZMRPbnDqeFdRc159tS-191" value="&lt;font style=&quot;font-size: 25px;&quot;&gt;1M&lt;/font&gt;" style="text;strokeColor=none;align=center;fillColor=none;html=1;verticalAlign=middle;whiteSpace=wrap;rounded=0;" parent="1" vertex="1">
          <mxGeometry x="700" y="525" width="60" height="30" as="geometry" />
        </mxCell>
        <mxCell id="qoZMRPbnDqeFdRc159tS-192" value="&lt;font style=&quot;font-size: 25px;&quot;&gt;1M&lt;/font&gt;" style="text;strokeColor=none;align=center;fillColor=none;html=1;verticalAlign=middle;whiteSpace=wrap;rounded=0;" parent="1" vertex="1">
          <mxGeometry x="700" y="625" width="60" height="30" as="geometry" />
        </mxCell>
        <mxCell id="qoZMRPbnDqeFdRc159tS-193" value="&lt;font style=&quot;font-size: 25px;&quot;&gt;1M&lt;/font&gt;" style="text;strokeColor=none;align=center;fillColor=none;html=1;verticalAlign=middle;whiteSpace=wrap;rounded=0;" parent="1" vertex="1">
          <mxGeometry x="700" y="725" width="60" height="30" as="geometry" />
        </mxCell>
        <mxCell id="qoZMRPbnDqeFdRc159tS-194" value="&lt;font style=&quot;font-size: 25px;&quot;&gt;1M&lt;/font&gt;" style="text;strokeColor=none;align=center;fillColor=none;html=1;verticalAlign=middle;whiteSpace=wrap;rounded=0;" parent="1" vertex="1">
          <mxGeometry x="700" y="825" width="60" height="30" as="geometry" />
        </mxCell>
        <mxCell id="qoZMRPbnDqeFdRc159tS-195" value="&lt;font style=&quot;font-size: 25px;&quot;&gt;1M&lt;/font&gt;" style="text;strokeColor=none;align=center;fillColor=none;html=1;verticalAlign=middle;whiteSpace=wrap;rounded=0;" parent="1" vertex="1">
          <mxGeometry x="700" y="925" width="60" height="30" as="geometry" />
        </mxCell>
        <mxCell id="qoZMRPbnDqeFdRc159tS-196" value="&lt;font style=&quot;font-size: 25px;&quot;&gt;1M&lt;/font&gt;" style="text;strokeColor=none;align=center;fillColor=none;html=1;verticalAlign=middle;whiteSpace=wrap;rounded=0;" parent="1" vertex="1">
          <mxGeometry x="700" y="1025" width="60" height="30" as="geometry" />
        </mxCell>
        <mxCell id="qoZMRPbnDqeFdRc159tS-197" value="&lt;font style=&quot;font-size: 25px;&quot;&gt;1M&lt;/font&gt;" style="text;strokeColor=none;align=center;fillColor=none;html=1;verticalAlign=middle;whiteSpace=wrap;rounded=0;" parent="1" vertex="1">
          <mxGeometry x="700" y="1125" width="60" height="30" as="geometry" />
        </mxCell>
        <mxCell id="qoZMRPbnDqeFdRc159tS-198" value="&lt;font style=&quot;font-size: 25px;&quot;&gt;1M&lt;/font&gt;" style="text;strokeColor=none;align=center;fillColor=none;html=1;verticalAlign=middle;whiteSpace=wrap;rounded=0;" parent="1" vertex="1">
          <mxGeometry x="700" y="1225" width="60" height="30" as="geometry" />
        </mxCell>
        <mxCell id="qoZMRPbnDqeFdRc159tS-199" value="&lt;font style=&quot;font-size: 25px;&quot;&gt;1M&lt;/font&gt;" style="text;strokeColor=none;align=center;fillColor=none;html=1;verticalAlign=middle;whiteSpace=wrap;rounded=0;" parent="1" vertex="1">
          <mxGeometry x="700" y="1325" width="60" height="30" as="geometry" />
        </mxCell>
        <mxCell id="qoZMRPbnDqeFdRc159tS-202" value="&lt;font style=&quot;font-size: 75px;&quot;&gt;2 MONTHS&lt;/font&gt;" style="text;strokeColor=none;align=center;fillColor=none;html=1;verticalAlign=middle;whiteSpace=wrap;rounded=0;" parent="1" vertex="1">
          <mxGeometry x="2270" y="-100" width="890" height="30" as="geometry" />
        </mxCell>
        <mxCell id="qoZMRPbnDqeFdRc159tS-213" value="&lt;font style=&quot;font-size: 75px;&quot;&gt;1 MONTH&lt;/font&gt;" style="text;strokeColor=none;align=center;fillColor=none;html=1;verticalAlign=middle;whiteSpace=wrap;rounded=0;" parent="1" vertex="1">
          <mxGeometry x="-424" y="3679" width="890" height="30" as="geometry" />
        </mxCell>
        <mxCell id="qoZMRPbnDqeFdRc159tS-216" value="" style="group" parent="1" vertex="1" connectable="0">
          <mxGeometry x="602" y="3507" width="620" height="560" as="geometry" />
        </mxCell>
        <mxCell id="qoZMRPbnDqeFdRc159tS-210" value="" style="rounded=0;whiteSpace=wrap;html=1;" parent="qoZMRPbnDqeFdRc159tS-216" vertex="1">
          <mxGeometry width="620" height="560" as="geometry" />
        </mxCell>
        <mxCell id="qoZMRPbnDqeFdRc159tS-224" value="&lt;font style=&quot;font-size: 50px;&quot;&gt;MATERIALIZED VIEW&lt;/font&gt;" style="text;strokeColor=none;align=center;fillColor=none;html=1;verticalAlign=middle;whiteSpace=wrap;rounded=0;" parent="qoZMRPbnDqeFdRc159tS-216" vertex="1">
          <mxGeometry x="302" y="262" width="60" height="30" as="geometry" />
        </mxCell>
        <mxCell id="qoZMRPbnDqeFdRc159tS-217" value="" style="group" parent="1" vertex="1" connectable="0">
          <mxGeometry x="-410" y="4269" width="890" height="310" as="geometry" />
        </mxCell>
        <mxCell id="qoZMRPbnDqeFdRc159tS-211" value="" style="rounded=0;whiteSpace=wrap;html=1;" parent="qoZMRPbnDqeFdRc159tS-217" vertex="1">
          <mxGeometry x="84" y="-372" width="620" height="310" as="geometry" />
        </mxCell>
        <mxCell id="qoZMRPbnDqeFdRc159tS-219" value="&lt;font style=&quot;font-size: 50px;&quot;&gt;7 DAYS&lt;/font&gt;" style="text;strokeColor=none;align=center;fillColor=none;html=1;verticalAlign=middle;whiteSpace=wrap;rounded=0;" parent="qoZMRPbnDqeFdRc159tS-217" vertex="1">
          <mxGeometry x="-5" y="150" width="890" height="30" as="geometry" />
        </mxCell>
        <mxCell id="qoZMRPbnDqeFdRc159tS-221" value="&lt;span style=&quot;font-size: 75px;&quot;&gt;1M&lt;/span&gt;" style="text;strokeColor=none;align=center;fillColor=none;html=1;verticalAlign=middle;whiteSpace=wrap;rounded=0;" parent="qoZMRPbnDqeFdRc159tS-217" vertex="1">
          <mxGeometry x="-51" y="161" width="890" height="30" as="geometry" />
        </mxCell>
        <mxCell id="qoZMRPbnDqeFdRc159tS-226" value="&lt;span style=&quot;font-size: 75px;&quot;&gt;7D&lt;/span&gt;" style="text;strokeColor=none;align=center;fillColor=none;html=1;verticalAlign=middle;whiteSpace=wrap;rounded=0;" parent="qoZMRPbnDqeFdRc159tS-217" vertex="1">
          <mxGeometry x="-41" y="-230" width="890" height="30" as="geometry" />
        </mxCell>
        <mxCell id="qoZMRPbnDqeFdRc159tS-218" value="" style="rounded=0;whiteSpace=wrap;html=1;" parent="1" vertex="1">
          <mxGeometry x="-323" y="4287" width="620" height="310" as="geometry" />
        </mxCell>
        <mxCell id="qoZMRPbnDqeFdRc159tS-222" style="edgeStyle=orthogonalEdgeStyle;rounded=0;orthogonalLoop=1;jettySize=auto;html=1;exitX=0;exitY=0.75;exitDx=0;exitDy=0;entryX=0.846;entryY=0.367;entryDx=0;entryDy=0;entryPerimeter=0;strokeWidth=9;" parent="1" source="qoZMRPbnDqeFdRc159tS-210" edge="1">
          <mxGeometry relative="1" as="geometry">
            <mxPoint x="289.9399999999996" y="4058.01" as="targetPoint" />
          </mxGeometry>
        </mxCell>
        <mxCell id="qoZMRPbnDqeFdRc159tS-227" value="&lt;span style=&quot;font-size: 75px;&quot;&gt;1M&lt;/span&gt;" style="text;strokeColor=none;align=center;fillColor=none;html=1;verticalAlign=middle;whiteSpace=wrap;rounded=0;" parent="1" vertex="1">
          <mxGeometry x="-458" y="4455" width="890" height="30" as="geometry" />
        </mxCell>
        <mxCell id="qoZMRPbnDqeFdRc159tS-228" value="" style="rounded=0;whiteSpace=wrap;html=1;" parent="1" vertex="1">
          <mxGeometry x="-312" y="4760" width="620" height="560" as="geometry" />
        </mxCell>
        <mxCell id="qoZMRPbnDqeFdRc159tS-229" value="&lt;font style=&quot;font-size: 50px;&quot;&gt;OLDER&lt;/font&gt;" style="text;strokeColor=none;align=center;fillColor=none;html=1;verticalAlign=middle;whiteSpace=wrap;rounded=0;" parent="1" vertex="1">
          <mxGeometry x="-132" y="4940" width="260" height="200" as="geometry" />
        </mxCell>
        <mxCell id="qoZMRPbnDqeFdRc159tS-231" style="edgeStyle=orthogonalEdgeStyle;rounded=0;orthogonalLoop=1;jettySize=auto;html=1;exitX=0.5;exitY=1;exitDx=0;exitDy=0;strokeWidth=5;" parent="1" source="qoZMRPbnDqeFdRc159tS-230" target="qoZMRPbnDqeFdRc159tS-228" edge="1">
          <mxGeometry relative="1" as="geometry">
            <Array as="points">
              <mxPoint x="-17" y="4726" />
              <mxPoint x="-17" y="4726" />
            </Array>
          </mxGeometry>
        </mxCell>
        <mxCell id="qoZMRPbnDqeFdRc159tS-232" style="edgeStyle=orthogonalEdgeStyle;rounded=0;orthogonalLoop=1;jettySize=auto;html=1;exitX=0.5;exitY=1;exitDx=0;exitDy=0;entryX=0.5;entryY=0;entryDx=0;entryDy=0;strokeWidth=5;" parent="1" source="qoZMRPbnDqeFdRc159tS-211" target="qoZMRPbnDqeFdRc159tS-218" edge="1">
          <mxGeometry relative="1" as="geometry">
            <Array as="points">
              <mxPoint x="-12" y="4207" />
              <mxPoint x="-12" y="4247" />
              <mxPoint x="-13" y="4247" />
            </Array>
          </mxGeometry>
        </mxCell>
        <mxCell id="YCooTLnTcFVxzHh2-yJh-1" value="&lt;font style=&quot;font-size: 100px;&quot;&gt;NORMAL VIEW&lt;/font&gt;" style="text;strokeColor=none;align=center;fillColor=none;html=1;verticalAlign=middle;whiteSpace=wrap;rounded=0;" parent="1" vertex="1">
          <mxGeometry x="1003" y="-594" width="1250" height="500" as="geometry" />
        </mxCell>
        <mxCell id="YCooTLnTcFVxzHh2-yJh-2" value="&lt;font style=&quot;font-size: 100px;&quot;&gt;MATERIALIZED VIEW&lt;/font&gt;" style="text;strokeColor=none;align=center;fillColor=none;html=1;verticalAlign=middle;whiteSpace=wrap;rounded=0;" parent="1" vertex="1">
          <mxGeometry x="948" y="2923" width="1250" height="500" as="geometry" />
        </mxCell>
        <mxCell id="YCooTLnTcFVxzHh2-yJh-3" value="" style="whiteSpace=wrap;html=1;aspect=fixed;" parent="1" vertex="1">
          <mxGeometry x="120" y="1405" width="80" height="80" as="geometry" />
        </mxCell>
        <mxCell id="YCooTLnTcFVxzHh2-yJh-4" value="&lt;font style=&quot;font-size: 25px;&quot;&gt;1M&lt;/font&gt;" style="text;strokeColor=none;align=center;fillColor=none;html=1;verticalAlign=middle;whiteSpace=wrap;rounded=0;" parent="1" vertex="1">
          <mxGeometry x="130" y="1430" width="60" height="30" as="geometry" />
        </mxCell>
        <mxCell id="YCooTLnTcFVxzHh2-yJh-5" value="" style="whiteSpace=wrap;html=1;aspect=fixed;" parent="1" vertex="1">
          <mxGeometry x="410" y="1423" width="80" height="80" as="geometry" />
        </mxCell>
        <mxCell id="YCooTLnTcFVxzHh2-yJh-6" value="&lt;font style=&quot;font-size: 25px;&quot;&gt;1M&lt;/font&gt;" style="text;strokeColor=none;align=center;fillColor=none;html=1;verticalAlign=middle;whiteSpace=wrap;rounded=0;" parent="1" vertex="1">
          <mxGeometry x="420" y="1448" width="60" height="30" as="geometry" />
        </mxCell>
        <mxCell id="YCooTLnTcFVxzHh2-yJh-7" value="" style="whiteSpace=wrap;html=1;aspect=fixed;" parent="1" vertex="1">
          <mxGeometry x="690" y="100" width="80" height="80" as="geometry" />
        </mxCell>
        <mxCell id="YCooTLnTcFVxzHh2-yJh-8" value="&lt;font style=&quot;font-size: 25px;&quot;&gt;1M&lt;/font&gt;" style="text;strokeColor=none;align=center;fillColor=none;html=1;verticalAlign=middle;whiteSpace=wrap;rounded=0;" parent="1" vertex="1">
          <mxGeometry x="700" y="125" width="60" height="30" as="geometry" />
        </mxCell>
        <mxCell id="YCooTLnTcFVxzHh2-yJh-9" value="" style="whiteSpace=wrap;html=1;aspect=fixed;" parent="1" vertex="1">
          <mxGeometry x="690" y="12" width="80" height="80" as="geometry" />
        </mxCell>
        <mxCell id="YCooTLnTcFVxzHh2-yJh-10" value="&lt;font style=&quot;font-size: 25px;&quot;&gt;1M&lt;/font&gt;" style="text;strokeColor=none;align=center;fillColor=none;html=1;verticalAlign=middle;whiteSpace=wrap;rounded=0;" parent="1" vertex="1">
          <mxGeometry x="700" y="37" width="60" height="30" as="geometry" />
        </mxCell>
        <mxCell id="YCooTLnTcFVxzHh2-yJh-13" value="" style="endArrow=none;html=1;rounded=0;entryX=0.5;entryY=0;entryDx=0;entryDy=0;exitX=0.5;exitY=1;exitDx=0;exitDy=0;" parent="1" source="YCooTLnTcFVxzHh2-yJh-12" target="YCooTLnTcFVxzHh2-yJh-12" edge="1">
          <mxGeometry width="50" height="50" relative="1" as="geometry">
            <mxPoint x="4414" y="1802" as="sourcePoint" />
            <mxPoint x="4464" y="1752" as="targetPoint" />
          </mxGeometry>
        </mxCell>
        <mxCell id="YCooTLnTcFVxzHh2-yJh-15" value="" style="endArrow=none;html=1;rounded=0;entryX=-0.001;entryY=0.107;entryDx=0;entryDy=0;entryPerimeter=0;" parent="1" target="YCooTLnTcFVxzHh2-yJh-12" edge="1">
          <mxGeometry width="50" height="50" relative="1" as="geometry">
            <mxPoint x="6426" y="237" as="sourcePoint" />
            <mxPoint x="5572.000000000002" y="590.0017411402159" as="targetPoint" />
            <Array as="points">
              <mxPoint x="4966" y="237" />
            </Array>
          </mxGeometry>
        </mxCell>
        <mxCell id="YCooTLnTcFVxzHh2-yJh-16" value="&lt;font style=&quot;font-size: 75px;&quot;&gt;Lookup Table (Temp Table)&lt;/font&gt;" style="text;strokeColor=none;align=center;fillColor=none;html=1;verticalAlign=middle;whiteSpace=wrap;rounded=0;" parent="1" vertex="1">
          <mxGeometry x="5130" y="-266" width="1130" height="230" as="geometry" />
        </mxCell>
        <mxCell id="YCooTLnTcFVxzHh2-yJh-17" value="&lt;font style=&quot;font-size: 100px;&quot;&gt;ID&lt;/font&gt;" style="text;strokeColor=none;align=center;fillColor=none;html=1;verticalAlign=middle;whiteSpace=wrap;rounded=0;" parent="1" vertex="1">
          <mxGeometry x="5223" y="95" width="60" height="30" as="geometry" />
        </mxCell>
        <mxCell id="YCooTLnTcFVxzHh2-yJh-21" value="&lt;font style=&quot;font-size: 100px;&quot;&gt;Timestamp&lt;/font&gt;" style="text;strokeColor=none;align=center;fillColor=none;html=1;verticalAlign=middle;whiteSpace=wrap;rounded=0;" parent="1" vertex="1">
          <mxGeometry x="6043" y="90" width="60" height="30" as="geometry" />
        </mxCell>
        <mxCell id="YCooTLnTcFVxzHh2-yJh-24" value="" style="rounded=0;whiteSpace=wrap;html=1;" parent="1" vertex="1">
          <mxGeometry x="6988" y="-4" width="2947" height="1644" as="geometry" />
        </mxCell>
        <mxCell id="YCooTLnTcFVxzHh2-yJh-25" value="" style="endArrow=none;html=1;rounded=0;entryX=0.5;entryY=0;entryDx=0;entryDy=0;exitX=0.5;exitY=1;exitDx=0;exitDy=0;" parent="1" edge="1">
          <mxGeometry width="50" height="50" relative="1" as="geometry">
            <mxPoint x="7443" y="1627" as="sourcePoint" />
            <mxPoint x="7443" y="-17" as="targetPoint" />
          </mxGeometry>
        </mxCell>
        <mxCell id="YCooTLnTcFVxzHh2-yJh-26" value="" style="endArrow=none;html=1;rounded=0;entryX=0.5;entryY=0;entryDx=0;entryDy=0;exitX=0.5;exitY=1;exitDx=0;exitDy=0;" parent="1" edge="1">
          <mxGeometry width="50" height="50" relative="1" as="geometry">
            <mxPoint x="8268" y="1635" as="sourcePoint" />
            <mxPoint x="8268" y="-9" as="targetPoint" />
          </mxGeometry>
        </mxCell>
        <mxCell id="YCooTLnTcFVxzHh2-yJh-27" value="" style="endArrow=none;html=1;rounded=0;entryX=0.5;entryY=0;entryDx=0;entryDy=0;exitX=0.5;exitY=1;exitDx=0;exitDy=0;" parent="1" edge="1">
          <mxGeometry width="50" height="50" relative="1" as="geometry">
            <mxPoint x="9097" y="1635" as="sourcePoint" />
            <mxPoint x="9097" y="-9" as="targetPoint" />
          </mxGeometry>
        </mxCell>
        <mxCell id="YCooTLnTcFVxzHh2-yJh-30" value="" style="endArrow=none;html=1;rounded=0;exitX=1.001;exitY=0.199;exitDx=0;exitDy=0;exitPerimeter=0;" parent="1" source="YCooTLnTcFVxzHh2-yJh-24" edge="1">
          <mxGeometry width="50" height="50" relative="1" as="geometry">
            <mxPoint x="9003" y="330" as="sourcePoint" />
            <mxPoint x="6981" y="330" as="targetPoint" />
            <Array as="points">
              <mxPoint x="7543" y="330" />
            </Array>
          </mxGeometry>
        </mxCell>
        <mxCell id="YCooTLnTcFVxzHh2-yJh-31" value="&lt;font style=&quot;font-size: 100px;&quot;&gt;ID&lt;/font&gt;" style="text;strokeColor=none;align=center;fillColor=none;html=1;verticalAlign=middle;whiteSpace=wrap;rounded=0;" parent="1" vertex="1">
          <mxGeometry x="7200" y="146" width="60" height="30" as="geometry" />
        </mxCell>
        <mxCell id="YCooTLnTcFVxzHh2-yJh-32" value="&lt;font style=&quot;font-size: 100px;&quot;&gt;Name&lt;/font&gt;" style="text;strokeColor=none;align=center;fillColor=none;html=1;verticalAlign=middle;whiteSpace=wrap;rounded=0;" parent="1" vertex="1">
          <mxGeometry x="7800" y="142" width="60" height="30" as="geometry" />
        </mxCell>
        <mxCell id="YCooTLnTcFVxzHh2-yJh-33" value="&lt;font style=&quot;font-size: 100px;&quot;&gt;Timestamp&lt;/font&gt;" style="text;strokeColor=none;align=center;fillColor=none;html=1;verticalAlign=middle;whiteSpace=wrap;rounded=0;" parent="1" vertex="1">
          <mxGeometry x="8536" y="135" width="300" height="30" as="geometry" />
        </mxCell>
        <mxCell id="YCooTLnTcFVxzHh2-yJh-35" value="&lt;font style=&quot;font-size: 100px;&quot;&gt;Col 4&lt;/font&gt;" style="text;strokeColor=none;align=center;fillColor=none;html=1;verticalAlign=middle;whiteSpace=wrap;rounded=0;" parent="1" vertex="1">
          <mxGeometry x="9345" y="146" width="356" height="30" as="geometry" />
        </mxCell>
        <mxCell id="YCooTLnTcFVxzHh2-yJh-37" value="&lt;font style=&quot;font-size: 75px;&quot;&gt;Redshift DB Table&lt;/font&gt;" style="text;strokeColor=none;align=center;fillColor=none;html=1;verticalAlign=middle;whiteSpace=wrap;rounded=0;" parent="1" vertex="1">
          <mxGeometry x="7956" y="-314" width="1130" height="230" as="geometry" />
        </mxCell>
        <mxCell id="YCooTLnTcFVxzHh2-yJh-38" value="" style="shape=flexArrow;endArrow=classic;html=1;rounded=0;endWidth=240;endSize=26.949999999999996;" parent="1" edge="1">
          <mxGeometry width="50" height="50" relative="1" as="geometry">
            <mxPoint x="7538" y="1816" as="sourcePoint" />
            <mxPoint x="5918" y="1816" as="targetPoint" />
            <Array as="points">
              <mxPoint x="6668" y="2241" />
            </Array>
          </mxGeometry>
        </mxCell>
        <mxCell id="YCooTLnTcFVxzHh2-yJh-39" value="" style="ellipse;whiteSpace=wrap;html=1;aspect=fixed;" parent="1" vertex="1">
          <mxGeometry x="7038" y="2176" width="360" height="360" as="geometry" />
        </mxCell>
        <mxCell id="YCooTLnTcFVxzHh2-yJh-40" value="&lt;font style=&quot;font-size: 150px;&quot;&gt;1&lt;/font&gt;" style="text;strokeColor=none;align=center;fillColor=none;html=1;verticalAlign=middle;whiteSpace=wrap;rounded=0;" parent="1" vertex="1">
          <mxGeometry x="7103" y="2261" width="230" height="190" as="geometry" />
        </mxCell>
        <mxCell id="YCooTLnTcFVxzHh2-yJh-42" value="" style="ellipse;whiteSpace=wrap;html=1;aspect=fixed;" parent="1" vertex="1">
          <mxGeometry x="7313" y="-939" width="360" height="360" as="geometry" />
        </mxCell>
        <mxCell id="YCooTLnTcFVxzHh2-yJh-43" value="&lt;font style=&quot;font-size: 150px;&quot;&gt;2&lt;/font&gt;" style="text;strokeColor=none;align=center;fillColor=none;html=1;verticalAlign=middle;whiteSpace=wrap;rounded=0;" parent="1" vertex="1">
          <mxGeometry x="7378" y="-854" width="230" height="190" as="geometry" />
        </mxCell>
        <mxCell id="YCooTLnTcFVxzHh2-yJh-44" value="" style="shape=flexArrow;endArrow=classic;html=1;rounded=0;endWidth=240;endSize=26.949999999999996;" parent="1" edge="1">
          <mxGeometry width="50" height="50" relative="1" as="geometry">
            <mxPoint x="6128" y="-305" as="sourcePoint" />
            <mxPoint x="7748" y="-305" as="targetPoint" />
            <Array as="points">
              <mxPoint x="6923" y="-734" />
            </Array>
          </mxGeometry>
        </mxCell>
        <mxCell id="fSKvicO9LgRBby99L307-7" value="" style="ellipse;whiteSpace=wrap;html=1;aspect=fixed;" parent="1" vertex="1">
          <mxGeometry x="6233" y="3737" width="180" height="180" as="geometry" />
        </mxCell>
        <mxCell id="fSKvicO9LgRBby99L307-8" value="" style="ellipse;whiteSpace=wrap;html=1;aspect=fixed;" parent="1" vertex="1">
          <mxGeometry x="6233" y="4433" width="180" height="180" as="geometry" />
        </mxCell>
        <mxCell id="fSKvicO9LgRBby99L307-9" value="" style="ellipse;whiteSpace=wrap;html=1;aspect=fixed;" parent="1" vertex="1">
          <mxGeometry x="5301" y="4846" width="180" height="180" as="geometry" />
        </mxCell>
        <mxCell id="fSKvicO9LgRBby99L307-10" value="" style="ellipse;whiteSpace=wrap;html=1;aspect=fixed;" parent="1" vertex="1">
          <mxGeometry x="4174" y="4786" width="180" height="180" as="geometry" />
        </mxCell>
        <mxCell id="fSKvicO9LgRBby99L307-11" value="" style="ellipse;whiteSpace=wrap;html=1;aspect=fixed;" parent="1" vertex="1">
          <mxGeometry x="3394" y="4074" width="180" height="180" as="geometry" />
        </mxCell>
        <mxCell id="fSKvicO9LgRBby99L307-12" value="" style="ellipse;whiteSpace=wrap;html=1;aspect=fixed;" parent="1" vertex="1">
          <mxGeometry x="4174" y="3365" width="180" height="180" as="geometry" />
        </mxCell>
        <mxCell id="fSKvicO9LgRBby99L307-13" value="" style="ellipse;whiteSpace=wrap;html=1;aspect=fixed;" parent="1" vertex="1">
          <mxGeometry x="5301" y="3299" width="180" height="180" as="geometry" />
        </mxCell>
        <mxCell id="fSKvicO9LgRBby99L307-17" value="" style="endArrow=classic;html=1;rounded=0;strokeWidth=10;" parent="1" edge="1">
          <mxGeometry width="50" height="50" relative="1" as="geometry">
            <mxPoint x="3653" y="3138" as="sourcePoint" />
            <mxPoint x="6139" y="3211" as="targetPoint" />
            <Array as="points">
              <mxPoint x="4972" y="2571" />
            </Array>
          </mxGeometry>
        </mxCell>
        <mxCell id="fSKvicO9LgRBby99L307-18" value="" style="endArrow=classic;html=1;rounded=0;strokeWidth=10;" parent="1" edge="1">
          <mxGeometry width="50" height="50" relative="1" as="geometry">
            <mxPoint x="6086" y="5377" as="sourcePoint" />
            <mxPoint x="3700" y="5353" as="targetPoint" />
            <Array as="points">
              <mxPoint x="4959" y="5924" />
            </Array>
          </mxGeometry>
        </mxCell>
        <mxCell id="fSKvicO9LgRBby99L307-19" value="" style="endArrow=classic;html=1;rounded=0;strokeWidth=10;" parent="1" edge="1">
          <mxGeometry width="50" height="50" relative="1" as="geometry">
            <mxPoint x="7293" y="3157" as="sourcePoint" />
            <mxPoint x="6806" y="3497" as="targetPoint" />
          </mxGeometry>
        </mxCell>
        <mxCell id="fSKvicO9LgRBby99L307-20" value="" style="ellipse;whiteSpace=wrap;html=1;aspect=fixed;" parent="1" vertex="1">
          <mxGeometry x="6968" y="3507" width="360" height="360" as="geometry" />
        </mxCell>
        <mxCell id="fSKvicO9LgRBby99L307-21" value="&lt;font style=&quot;font-size: 150px;&quot;&gt;1&lt;/font&gt;" style="text;strokeColor=none;align=center;fillColor=none;html=1;verticalAlign=middle;whiteSpace=wrap;rounded=0;" parent="1" vertex="1">
          <mxGeometry x="7033" y="3592" width="230" height="190" as="geometry" />
        </mxCell>
        <mxCell id="fSKvicO9LgRBby99L307-22" value="" style="ellipse;whiteSpace=wrap;html=1;aspect=fixed;" parent="1" vertex="1">
          <mxGeometry x="5081" y="6046" width="360" height="360" as="geometry" />
        </mxCell>
        <mxCell id="fSKvicO9LgRBby99L307-23" value="&lt;font style=&quot;font-size: 150px;&quot;&gt;2&lt;/font&gt;" style="text;strokeColor=none;align=center;fillColor=none;html=1;verticalAlign=middle;whiteSpace=wrap;rounded=0;" parent="1" vertex="1">
          <mxGeometry x="5146" y="6131" width="230" height="190" as="geometry" />
        </mxCell>
        <mxCell id="fSKvicO9LgRBby99L307-24" value="" style="ellipse;whiteSpace=wrap;html=1;aspect=fixed;" parent="1" vertex="1">
          <mxGeometry x="4354" y="2206" width="360" height="360" as="geometry" />
        </mxCell>
        <mxCell id="fSKvicO9LgRBby99L307-25" value="&lt;font style=&quot;font-size: 150px;&quot;&gt;3&lt;/font&gt;" style="text;strokeColor=none;align=center;fillColor=none;html=1;verticalAlign=middle;whiteSpace=wrap;rounded=0;" parent="1" vertex="1">
          <mxGeometry x="4419" y="2291" width="230" height="190" as="geometry" />
        </mxCell>
      </root>
    </mxGraphModel>
  </diagram>
</mxfile>
